<svg width="21" height="20" viewBox="0 0 21 20" fill="none" xmlns="http://www.w3.org/2000/svg">
<path d="M9.7669 9.86678C9.7669 10.2534 10.0803 10.5668 10.4669 10.5668C10.8535 10.5668 11.1669 10.2534 11.1669 9.86678C11.1669 9.48018 10.8535 9.16678 10.4669 9.16678C10.0803 9.16678 9.7669 9.48018 9.7669 9.86678Z" fill="white" stroke="white" stroke-width="1.16667" stroke-linecap="round" stroke-linejoin="round"/>
<path d="M15.5999 9.86678C15.5999 10.2534 15.9133 10.5668 16.2999 10.5668C16.6865 10.5668 16.9999 10.2534 16.9999 9.86678C16.9999 9.48018 16.6865 9.16678 16.2999 9.16678C15.9133 9.16678 15.5999 9.48018 15.5999 9.86678Z" fill="white" stroke="white" stroke-width="1.16667" stroke-linecap="round" stroke-linejoin="round"/>
<path d="M3.9334 9.86678C3.9334 10.2534 4.24681 10.5668 4.6334 10.5668C5.02 10.5668 5.3334 10.2534 5.3334 9.86678C5.3334 9.48018 5.02 9.16678 4.6334 9.16678C4.24681 9.16678 3.9334 9.48018 3.9334 9.86678Z" fill="white" stroke="white" stroke-width="1.16667" stroke-linecap="round" stroke-linejoin="round"/>
</svg>
